<svg xmlns="http://www.w3.org/2000/svg" viewBox="0 0 67.733332 67.733333" width="256" height="256">
  <rect width="67.733332" height="67.733333" fill="#0a0a0f"/>
  <defs>
    <clipPath id="c" clipPathUnits="userSpaceOnUse">
      <path clip-rule="evenodd" d="M -5,-5 H 72.733332 V 72.733332 H -5 Z M 4.2333333,4.2333333 V 63.499999 H 31.75 V 4.2333333 Z m 31.7499997,0 V 63.499999 H 63.499999 V 4.2333333 Z"/>
    </clipPath>
  </defs>
  <!-- 雲 -->
  <path fill="#afc6e9" stroke="#373e48" stroke-width="0.52916666" d="M 3.7041666,3.7041666 H 64.029166 V 14.816666 c 0,0 -1.037851,3.155772 -2.841698,4.186271 -2.310538,1.319961 -3.979674,0.397967 -3.979674,0.397967 l 2.487294,12.834445 -8.158326,-11.043592 c 0,0 -1.061491,1.858965 -6.466969,2.288311 -5.723266,0.454588 -7.561378,-2.885262 -7.561378,-2.885262 0,0 -3.224831,4.796154 -12.336986,4.576623 -8.17111,-0.196859 -9.053755,-5.571541 -9.053755,-5.571541 0,0 -3.518601,3.04414 -8.2578206,0.09949 C 4.8424485,17.824554 3.7041666,11.641667 3.7041666,11.641667 Z"/>
  <!-- 窓枠 -->
  <path fill="#2c5aa0" clip-path="url(#c)" d="m 0,4.2333333 c 0,0 0.11692241,-1.7365485 1.3229167,-2.9104166 C 2.4657663,0.21051126 4.2333333,0 4.2333333,0 H 63.499999 c 0,0 2.109154,0.27506978 2.910417,1.3229167 1.033471,1.3515159 1.322916,2.9104166 1.322916,2.9104166 V 63.499999 c 0,0 -0.181193,1.784083 -1.322916,2.910417 -1.197204,1.181067 -2.910417,1.322916 -2.910417,1.322916 H 4.2333333 c 0,0 -1.8436821,-0.256884 -2.9104166,-1.322916 C 0.1122417,65.200538 0,63.499999 0,63.499999 Z"/>
</svg>
