<svg xmlns="http://www.w3.org/2000/svg" viewBox="0 0 67.733332 67.733333" width="256" height="256">
  <rect width="67.733332" height="67.733333" rx="10" fill="#0a0a0f"/>
  <defs>
    <clipPath id="c" clipPathUnits="userSpaceOnUse">
      <path clip-rule="evenodd" d="M -5,-5 H 72.733332 V 72.733332 H -5 Z M 8.4666666,8.4666666 V 59.266666 H 29.633333 V 8.4666666 Z m 29.6333334,0 V 59.266666 H 59.266666 V 8.4666666 Z"/>
    </clipPath>
  </defs>
  <!-- 雲 -->
  <path fill="#afc6e9" stroke="#373e48" stroke-width="0.529167" d="M 7.9374999,7.9374999 H 59.795833 v 8.9958331 c 0,0 -0.183885,3.221561 -1.891595,4.855374 -2.304799,2.205065 -3.581707,1.691361 -3.581707,1.691361 L 53.029138,34.921626 41.886055,27.360249 c 0,0 -16.554982,2.158175 -22.186676,0.198984 -7.942355,-2.76304 -11.7618791,-10.6259 -11.7618791,-10.6259 z"/>
  <!-- 窓枠 -->
  <path fill="#2c5aa0" clip-path="url(#c)" d="m 0,4.2333333 c 0,0 0.11692241,-1.7365485 1.3229167,-2.9104166 C 2.4657663,0.21051126 4.2333333,0 4.2333333,0 H 63.499999 c 0,0 2.109154,0.27506978 2.910417,1.3229167 1.033471,1.3515159 1.322916,2.9104166 1.322916,2.9104166 V 63.499999 c 0,0 -0.181193,1.784083 -1.322916,2.910417 -1.197204,1.181067 -2.910417,1.322916 -2.910417,1.322916 H 4.2333333 c 0,0 -1.8436821,-0.256884 -2.9104166,-1.322916 C 0.1122417,65.200538 0,63.499999 0,63.499999 Z"/>
</svg>
