<svg xmlns="http://www.w3.org/2000/svg" width="1200" height="630">
  <defs>
    <linearGradient id="bg" x1="0" y1="0" x2="1" y2="1">
      <stop offset="0%" stop-color="#060c18"/>
      <stop offset="100%" stop-color="#0b1726"/>
    </linearGradient>
    <linearGradient id="al" x1="0" y1="0" x2="1" y2="0">
      <stop offset="0%" stop-color="#0085ff" stop-opacity="0.9"/>
      <stop offset="100%" stop-color="#3b82f6" stop-opacity="0.4"/>
    </linearGradient>
  </defs>
  <rect width="1200" height="630" fill="url(#bg)"/>
  <ellipse cx="1100" cy="580" rx="300" ry="200" fill="#0085ff" opacity="0.05"/>
  <ellipse cx="100" cy="80" rx="200" ry="150" fill="#3b82f6" opacity="0.04"/>
  <rect x="64" y="48" width="1072" height="534" rx="24" fill="#101828" stroke="#1e3a5f" stroke-width="1.5"/>
  <rect x="64" y="48" width="1072" height="5" rx="3" fill="url(#al)"/>
  <rect x="104" y="100" width="30" height="24" rx="5" fill="none" stroke="#0085ff" stroke-width="2"/>
  <line x1="104" y1="109" x2="134" y2="109" stroke="#0085ff" stroke-width="1.5"/>
  <line x1="119" y1="109" x2="119" y2="124" stroke="#0085ff" stroke-width="1.5"/>
  <text x="146" y="120" font-family="sans-serif" font-size="26" font-weight="bold" fill="#0085ff">Mado</text>
  <line x1="104" y1="148" x2="1096" y2="148" stroke="#1e3a5f" stroke-width="1"/>
  <rect x="104" y="162" width="108" height="28" rx="14" fill="#0d2240" stroke="#1e5080" stroke-width="1"/>
  <text x="158" y="181" text-anchor="middle" font-family="sans-serif" font-size="13" fill="#7aaac8">匿名の質問</text>
  <text x="600" y="360" text-anchor="middle" font-family="sans-serif" font-size="48" font-weight="bold" fill="#deeeff">匿名の質問が届いています</text>
  <text x="600" y="420" text-anchor="middle" font-family="sans-serif" font-size="26" fill="#7aaac8">半匿名質問箱 Mado (窓)</text>
  <text x="1096" y="562" text-anchor="end" font-family="sans-serif" font-size="16" fill="#486882">mado.blue</text>
</svg>
